<svg width="14" height="14" viewBox="0 0 14 14" fill="none" xmlns="http://www.w3.org/2000/svg">
<path d="M8.54214 5.45686C8.3763 5.29004 8.19242 5.14216 7.99391 5.01594C7.46813 4.67926 6.85689 4.50036 6.23255 4.50036C5.36599 4.49874 4.53464 4.84305 3.92297 5.45686L0.955498 8.42665C0.344858 9.03847 0.00164609 9.86741 0.00109931 10.7318C-4.89221e-05 12.5356 1.46127 13.9988 3.26508 14C4.1303 14.003 4.96088 13.6603 5.57234 13.0481L8.0219 10.5986C8.06641 10.5545 8.09126 10.4943 8.09091 10.4316C8.09017 10.3027 7.98511 10.1989 7.85626 10.1997H7.76295C7.25117 10.2015 6.74395 10.1032 6.2699 9.91038C6.18255 9.87443 6.08216 9.89472 6.01562 9.9617L4.25426 11.7254C3.70732 12.2723 2.82055 12.2723 2.27361 11.7254C1.72667 11.1784 1.72667 10.2917 2.27361 9.74474L5.25275 6.76795C5.79926 6.22213 6.68457 6.22213 7.23107 6.76795C7.59938 7.11458 8.17388 7.11458 8.54216 6.76795C8.70062 6.60936 8.79669 6.39901 8.81279 6.17538C8.82982 5.90814 8.73127 5.64643 8.54214 5.45686Z" fill="#202040"/>
<path d="M13.0423 0.956669C11.7668 -0.318879 9.6987 -0.318879 8.42316 0.956669L5.97592 3.40155C5.90872 3.46908 5.88934 3.57064 5.92693 3.65818C5.96408 3.74597 6.05091 3.80231 6.14621 3.80048H6.23252C6.7437 3.79955 7.2501 3.8986 7.72325 4.09211C7.8106 4.12806 7.91099 4.10777 7.97753 4.04079L9.73422 2.28643C10.2812 1.73949 11.1679 1.73949 11.7149 2.28643C12.2618 2.83337 12.2618 3.72013 11.7149 4.26707L9.52658 6.453L9.50791 6.474L8.74272 7.23454C8.19622 7.78036 7.3109 7.78036 6.7644 7.23454C6.39609 6.88791 5.82159 6.88791 5.45331 7.23454C5.29384 7.39434 5.19769 7.60651 5.18268 7.83176C5.16562 8.09899 5.26418 8.36071 5.45331 8.5503C5.72334 8.82148 6.03926 9.04262 6.38647 9.20351C6.43546 9.22683 6.48445 9.2455 6.53344 9.2665C6.58243 9.2875 6.63375 9.30382 6.68274 9.32249C6.73173 9.34116 6.78304 9.35748 6.83204 9.37148L6.96969 9.4088C7.06299 9.43212 7.15633 9.45079 7.25196 9.46711C7.36717 9.48423 7.48319 9.49513 7.59957 9.49978H7.76287H7.77687L7.91684 9.48346C7.96816 9.48114 8.02182 9.46946 8.08249 9.46946H8.1618L8.32277 9.44614L8.39743 9.43215L8.53273 9.40415H8.5584C9.13145 9.26021 9.65472 8.9635 10.0725 8.54563L13.0422 5.57584C14.3179 4.30029 14.3179 2.23222 13.0423 0.956669Z" fill="#202040"/>
</svg>
